HIERARCHY
ROOT hip
{
	OFFSET 0.000000 0.000000 0.000000 
	CHANNELS 6 Xposition Yposition Zposition Xrotation Zrotation Yrotation
	JOINT abdomen
	{
		OFFSET 0.000000 3.402643 0.000000 
		CHANNELS 3 Xrotation Zrotation Yrotation
		JOINT chest
		{
			OFFSET 0.000000 8.438565 -0.680529 
			CHANNELS 3 Xrotation Zrotation Yrotation
			JOINT neck
			{
				OFFSET 0.000000 10.207942 -0.272212 
				CHANNELS 3 Xrotation Zrotation Yrotation
				JOINT head
				{
					OFFSET 0.000000 3.130431 0.000000 
					CHANNELS 3 Xrotation Zrotation Yrotation
					End Site
					{
						OFFSET 0.000000 3.130435 0.000000 
					}
				}
			}
			JOINT lCollar
			{
				OFFSET 3.470700 6.669187 -0.816635 
				CHANNELS 3 Yrotation Zrotation Xrotation
				JOINT lShldr
				{
					OFFSET 3.198488 0.000000 0.000000 
					CHANNELS 3 Zrotation Yrotation Xrotation
					JOINT lForeArm
					{
						OFFSET 10.139888 0.000000 0.000000 
						CHANNELS 3 Yrotation Zrotation Xrotation
						JOINT lHand
						{
							OFFSET 8.370511 0.000000 0.000000 
							CHANNELS 3 Zrotation Yrotation Xrotation
							End Site
							{
								OFFSET 4.083176 0.000000 0.000000 
							}
						}
					}
				}
			}
			JOINT rCollar
			{
				OFFSET -3.470700 6.669187 -0.816635 
				CHANNELS 3 Yrotation Zrotation Xrotation
				JOINT rShldr
				{
					OFFSET -3.198488 0.000000 0.000000 
					CHANNELS 3 Zrotation Yrotation Xrotation
					JOINT rForeArm
					{
						OFFSET -10.139888 0.000000 0.000000 
						CHANNELS 3 Yrotation Zrotation Xrotation
						JOINT rHand
						{
							OFFSET -8.370511 0.000000 0.000000 
							CHANNELS 3 Zrotation Yrotation Xrotation
							End Site
							{
								OFFSET -4.083176 0.000000 0.000000 
							}
						}
					}
				}
			}
		}
	}
	JOINT lThigh
	{
		OFFSET 5.308129 -1.633274 1.361059 
		CHANNELS 3 Xrotation Zrotation Yrotation
		JOINT lShin
		{
			OFFSET -2.041588 -20.007561 0.000000 
			CHANNELS 3 Xrotation Zrotation Yrotation
			JOINT lFoot
			{
				OFFSET 0.000000 -19.190928 -1.224953 
				CHANNELS 3 Xrotation Yrotation Zrotation
				End Site
				{
					OFFSET 0.000000 -2.449906 4.627600 
				}
			}
		}
	}
	JOINT rThigh
	{
		OFFSET -5.308129 -1.633274 1.361059 
		CHANNELS 3 Xrotation Zrotation Yrotation
		JOINT rShin
		{
			OFFSET 2.041588 -20.007561 0.000000 
			CHANNELS 3 Xrotation Zrotation Yrotation
			JOINT rFoot
			{
				OFFSET 0.000000 -19.190928 -1.224953 
				CHANNELS 3 Xrotation Yrotation Zrotation
				End Site
				{
					OFFSET 0.000000 -2.449906 4.627600 
				}
			}
		}
	}
}
MOTION
Frames: 10
Frame Time: 0.033333
-0.167642 50.523281 0.677612 -2.103506 -0.556147 2.412185 0.000000 0.000000 0.000000 -13.564152 -0.351418 -1.640714 9.299952 -4.452780 0.714530 11.913997 -0.380859 0.009765 -3.521967 9.154817 6.304141 -6.402113 19.108603 -31.277594 -20.724844 4.989420 37.433804 -6.617629 5.779766 -7.729314 3.089181 -14.089146 8.026228 11.747159 -9.783360 -35.265766 12.397140 -5.004659 44.997601 4.832978 -5.275470 -8.117462 -0.635128 7.177272 4.720492 15.670176 -3.712409 0.975169 -10.440754 -0.102594 2.232843 0.672366 -4.202933 -5.296301 11.623284 3.117984 -20.878628 -10.082738 0.036861 -0.814233 
-0.176494 50.504360 0.665455 -2.260058 -0.605003 2.246175 0.000000 0.000000 0.000000 -13.361871 -0.273341 -1.523467 9.224154 -4.325846 0.704805 11.816022 -0.449219 0.048827 -3.521967 9.154817 6.304141 -6.278910 19.130272 -31.202421 -20.700651 4.993046 37.189747 -6.538363 5.690448 -7.730977 3.089181 -14.089146 8.026228 11.639637 -9.799047 -35.101917 12.341484 -5.006114 44.991295 4.696987 -5.273071 -8.132607 -0.430278 7.285496 4.903186 15.537313 -3.973860 1.576566 -10.559728 -0.129185 2.491222 0.634273 -4.198380 -5.405357 12.016475 3.139596 -20.645243 -10.258748 0.032824 -0.795009 
-0.190212 50.499161 0.657708 -2.258615 -0.605058 2.109464 0.000000 0.000000 0.000000 -13.420792 -0.273349 -1.455108 9.620167 -4.267190 0.772979 11.462914 -0.595700 0.185537 -3.521967 9.154817 6.304141 -6.205219 19.134813 -31.145679 -20.693937 4.996001 37.370365 -6.278179 5.791399 -7.740245 3.089181 -14.089146 8.026228 11.574021 -9.706936 -35.159740 12.300366 -5.005637 44.994095 4.444964 -5.482959 -8.169799 -0.410174 7.238590 4.900046 15.472849 -3.956034 1.924623 -10.567691 -0.160181 2.584356 0.487376 -4.182390 -5.448317 12.220502 3.177784 -20.656853 -10.365684 0.014671 -0.804105 
-0.202222 50.496777 0.677502 -2.268111 -0.614840 2.050873 0.000000 0.000000 0.000000 -13.538118 -0.273353 -1.425812 10.078691 -4.247652 0.782720 11.218711 -0.556637 0.205068 -3.521967 9.154817 6.304141 -6.132545 19.096695 -31.125637 -20.680048 4.992499 37.678879 -6.178108 5.831610 -7.762096 3.089181 -14.089146 8.026228 11.465954 -9.686891 -34.993935 12.314072 -5.005795 44.992882 4.166830 -5.716752 -8.202521 -0.497945 7.249721 4.892618 15.730406 -3.886888 1.865466 -10.607603 -0.175029 2.588256 0.506714 -4.172121 -5.446981 12.235415 3.201384 -20.702890 -10.414920 0.012987 -0.772603 
-0.195738 50.472656 0.730449 -2.443396 -0.595314 2.070403 0.000000 0.000000 0.000000 -13.479339 -0.273348 -1.464874 10.350869 -4.394133 0.773706 11.121548 -0.517576 0.166009 -3.521967 9.154817 6.304141 -6.060892 19.078899 -30.968815 -20.645775 4.994192 37.684761 -6.104087 5.644469 -7.746736 3.089181 -14.089146 8.026228 11.329491 -9.719948 -34.844147 12.362957 -5.011089 45.000427 4.138638 -5.985642 -8.234084 -0.176458 7.297677 5.030621 15.544752 -4.093622 2.088272 -10.675891 -0.207668 2.875932 0.643433 -4.156909 -5.431640 12.467192 3.102017 -20.676996 -10.563159 0.019581 -0.639868 
-0.185378 50.475018 0.784721 -2.500422 -0.536739 2.128996 0.000000 0.000000 0.000000 -13.584867 -0.331912 -1.533234 10.572853 -4.530828 0.783437 11.131514 -0.507811 0.146479 -3.521967 9.154817 6.304141 -6.132193 19.033102 -31.056181 -20.689152 4.997293 37.896866 -6.307081 5.640344 -7.729138 3.089181 -14.089146 8.026228 11.261450 -9.696187 -34.819160 12.404072 -5.011564 44.998459 4.181843 -6.077934 -8.244804 -0.078305 7.270290 5.087373 15.688369 -4.063665 1.623121 -10.715914 -0.212026 2.863294 0.828806 -4.108215 -5.333519 12.378765 2.915998 -20.749878 -10.553278 -0.035595 -0.558574 
-0.176713 50.482113 0.842558 -2.438792 -0.448900 2.158213 0.000000 0.000000 0.000000 -13.864896 -0.439288 -1.572369 10.740039 -4.501544 0.773703 11.238689 -0.566404 0.156242 -3.521967 9.154817 6.304141 -6.149891 19.023027 -31.062550 -20.705193 4.995442 37.944069 -6.464687 5.650393 -7.728053 3.089181 -14.089146 8.026228 11.269457 -9.702539 -34.677555 12.383437 -5.004500 44.998833 4.047722 -6.027193 -8.245906 -0.147077 7.156740 4.972125 15.811274 -3.886754 1.284436 -10.573874 -0.197684 2.728470 0.877066 -4.172832 -5.317030 12.304081 2.859906 -20.799620 -10.611951 -0.042543 -0.540453 
-0.155799 50.470764 0.931261 -2.623164 -0.419627 2.148451 0.000000 0.000000 0.000000 -13.855451 -0.419758 -1.601663 10.898597 -4.501575 0.743730 11.160828 -0.537108 0.136713 -3.521967 9.154817 6.304141 -6.148144 19.064529 -30.884272 -20.668556 4.996699 37.741081 -6.390607 5.542704 -7.709854 3.089181 -14.089146 8.026228 11.161610 -9.698570 -34.588699 12.383437 -5.004500 44.998833 4.137235 -5.975993 -8.233527 0.165492 6.969854 4.760477 15.792239 -3.633294 1.365199 -10.620191 -0.188436 2.776648 1.169198 -4.288375 -5.493528 12.337877 2.924345 -20.546631 -10.786858 -0.054547 -0.600912 
-0.134080 50.459885 0.997629 -2.641350 -0.400132 2.060565 0.000000 0.000000 0.000000 -13.945086 -0.370959 -1.543063 10.904069 -4.648015 0.773695 11.015115 -0.332031 0.087889 -3.521967 9.154817 6.304141 -6.125123 19.091684 -30.784571 -20.640455 4.994027 37.873756 -6.387436 5.592168 -7.714634 3.089181 -14.089146 8.026228 11.082852 -9.711251 -34.639683 12.376664 -5.011247 45.000061 4.416381 -5.948021 -8.224779 0.253306 6.851990 4.643386 15.930302 -3.506632 1.361197 -10.804808 -0.221122 2.859527 1.238807 -4.350842 -5.574799 12.467238 2.897034 -20.316528 -10.963573 0.033547 -0.666314 
-0.114109 50.461296 1.035846 -2.612194 -0.409899 2.031268 0.000000 0.000000 0.000000 -14.033381 -0.351432 -1.562531 10.818412 -4.540613 0.763967 11.014746 -0.429687 0.117184 -3.521967 9.154817 6.304141 -6.247239 19.087900 -30.910803 -20.670713 4.990732 37.928112 -6.228150 5.561776 -7.722771 3.089181 -14.089146 8.026228 11.106414 -9.706285 -34.654716 12.376664 -5.011247 45.000061 4.570544 -5.879140 -8.199042 0.194700 6.859595 4.664141 16.084385 -3.467246 1.228514 -10.737097 -0.149364 2.731742 1.200265 -4.374085 -5.636786 12.522237 2.972227 -20.402702 -10.826320 0.047796 -0.734865 
